<?xml version="1.0" standalone="no"?>
<!DOCTYPE svg PUBLIC "-//W3C//DTD SVG 20010904//EN"
 "http://www.w3.org/TR/2001/REC-SVG-20010904/DTD/svg10.dtd">
<svg version="1.0" xmlns="http://www.w3.org/2000/svg"
 width="569.000000pt" height="569.000000pt" viewBox="0 0 569.000000 569.000000"
 preserveAspectRatio="xMidYMid meet">
<metadata>
Created by potrace 1.14, written by Peter Selinger 2001-2017
</metadata>
<g transform="translate(0.000000,569.000000) scale(0.100000,-0.100000)"
fill="#000000" stroke="none">
<path d="M2773 5259 c-29 -28 -53 -48 -53 -43 0 4 -9 -3 -20 -16 -11 -13 -20
-27 -20 -31 0 -4 -9 -11 -20 -14 -11 -4 -18 -11 -15 -16 4 -5 2 -9 -4 -9 -5 0
-16 -6 -23 -13 -7 -7 -22 -19 -34 -27 -12 -8 -43 -34 -70 -58 -71 -61 -74 -63
-74 -56 0 4 -8 -3 -19 -14 -10 -12 -21 -22 -24 -22 -3 0 -17 -10 -30 -22 -21
-21 -78 -68 -129 -108 -11 -8 -47 -42 -81 -75 -34 -33 -80 -73 -101 -90 -21
-16 -47 -38 -59 -47 -11 -10 -23 -18 -26 -18 -3 0 -19 -11 -34 -25 -15 -14
-27 -24 -27 -21 0 3 -15 -9 -34 -27 -68 -64 -105 -94 -111 -89 -3 3 -5 0 -5
-5 0 -6 -19 -25 -42 -42 -23 -17 -39 -31 -36 -31 4 0 -8 -15 -25 -33 -18 -18
-35 -31 -39 -30 -4 2 -9 -1 -12 -5 -3 -5 -327 -8 -721 -8 -393 1 -715 -3 -715
-7 0 -5 -4 -5 -10 -2 -17 11 -11 -10 10 -33 11 -12 20 -24 20 -27 0 -6 10 -18
52 -65 16 -16 28 -35 28 -40 0 -6 5 -8 12 -4 6 4 8 3 5 -3 -3 -5 14 -36 38
-68 24 -33 42 -61 40 -63 -2 -2 7 -16 21 -30 13 -15 24 -32 24 -39 0 -7 5 -13
10 -13 6 0 10 -7 10 -15 0 -8 3 -15 8 -15 4 0 23 -25 42 -55 19 -30 38 -55 43
-55 4 0 7 -7 7 -15 0 -8 5 -15 10 -15 6 0 10 -6 10 -13 0 -7 9 -20 20 -30 11
-9 20 -23 20 -30 0 -7 8 -20 18 -29 24 -23 42 -46 42 -54 0 -4 11 -17 26 -30
14 -13 22 -24 18 -24 -4 0 0 -8 8 -17 8 -10 22 -30 31 -45 16 -25 15 -27 -18
-60 -19 -18 -35 -36 -35 -39 0 -3 9 -17 20 -30 11 -13 23 -28 28 -34 4 -5 11
-18 15 -27 3 -10 11 -18 17 -18 5 0 10 -5 10 -11 0 -8 50 -79 70 -99 9 -9 30
-45 44 -76 8 -17 23 -38 35 -46 11 -8 18 -18 14 -21 -3 -4 -1 -7 5 -7 7 0 12
-5 12 -10 0 -6 5 -16 10 -23 6 -7 29 -37 51 -67 65 -90 83 -112 109 -137 27
-27 34 -67 17 -98 -6 -11 -11 -23 -12 -27 0 -3 -3 -10 -7 -14 -5 -4 -8 -16 -8
-26 0 -10 -4 -18 -10 -18 -5 0 -10 -7 -10 -15 0 -8 -5 -15 -12 -15 -6 0 -8 -3
-5 -7 4 -3 0 -17 -8 -30 -9 -13 -13 -28 -10 -33 3 -6 1 -10 -4 -10 -6 0 -11
-8 -11 -17 0 -10 -7 -26 -15 -36 -7 -11 -11 -26 -8 -35 4 -10 2 -13 -5 -8 -12
7 -15 -1 -15 -36 0 -10 -2 -16 -6 -14 -3 2 -14 -14 -23 -36 l-17 -39 34 -20
c19 -11 37 -29 40 -40 4 -11 11 -17 16 -14 5 4 9 1 9 -5 0 -6 18 -29 40 -51
22 -22 40 -43 40 -45 0 -3 12 -17 27 -33 16 -15 39 -43 53 -62 14 -18 35 -44
48 -57 12 -14 22 -28 22 -31 0 -3 16 -22 35 -42 19 -20 31 -39 28 -43 -3 -3 2
-8 11 -12 9 -3 16 -10 16 -15 0 -9 14 -27 67 -88 18 -20 33 -40 33 -44 0 -13
27 -37 34 -30 3 4 6 1 6 -7 0 -7 18 -30 40 -51 22 -22 40 -42 40 -47 0 -4 9
-14 20 -22 11 -8 20 -20 20 -27 0 -7 5 -13 10 -13 6 0 10 -7 10 -16 0 -8 4
-12 10 -9 5 3 10 0 10 -8 0 -8 15 -31 34 -51 19 -20 32 -36 28 -36 -4 -1 4
-10 17 -20 13 -11 20 -20 17 -20 -4 0 3 -11 16 -24 13 -14 31 -36 41 -51 10
-14 23 -23 28 -19 5 3 9 2 8 -3 -4 -20 2 -33 15 -33 8 0 16 -10 20 -22 3 -13
29 -48 59 -78 29 -30 68 -76 87 -102 18 -27 37 -48 42 -48 4 0 7 -5 5 -11 -1
-6 7 -17 19 -25 19 -13 21 -11 38 36 10 28 22 50 28 50 5 0 7 4 4 9 -4 5 -1
22 6 38 6 15 11 31 10 35 -1 5 3 8 8 8 6 0 10 11 10 25 0 14 3 25 8 25 6 0 21
35 33 80 2 8 7 17 11 20 4 3 9 17 11 30 4 25 37 42 37 20 0 -12 50 -83 63 -88
4 -2 7 -10 7 -18 0 -8 7 -17 15 -20 8 -4 15 -12 15 -20 0 -7 8 -19 18 -26 18
-14 49 -56 69 -98 18 -35 54 -94 62 -100 3 -3 20 -25 36 -50 16 -25 34 -48 38
-51 5 -3 9 -10 10 -15 1 -5 6 -8 10 -6 5 1 6 -2 3 -7 -4 -5 0 -16 8 -24 8 -8
12 -17 9 -21 -4 -3 2 -6 12 -6 10 0 15 -3 12 -7 -4 -3 0 -15 10 -25 9 -10 12
-18 8 -18 -5 0 0 -8 11 -19 25 -24 49 -59 49 -72 0 -5 7 -14 15 -19 8 -5 11
-10 5 -10 -5 0 -4 -4 3 -9 7 -4 15 -17 16 -27 2 -13 12 -20 34 -22 24 -3 31 0
26 11 -3 8 2 21 10 30 9 9 16 20 16 26 0 6 4 11 10 11 5 0 9 3 8 8 -3 8 28 58
55 89 11 12 16 27 12 34 -5 8 -4 10 3 5 7 -4 17 3 24 18 6 14 15 26 20 26 4 0
7 3 5 8 -1 4 4 14 11 22 18 22 82 119 82 125 0 5 24 35 46 59 11 11 14 19 14
34 0 5 9 18 20 30 12 12 18 22 15 22 -6 0 6 16 38 51 9 10 17 24 17 31 0 6 3
8 7 5 3 -4 23 21 44 55 57 92 74 96 99 20 7 -24 20 -47 28 -51 11 -6 11 -10 3
-16 -8 -5 -5 -13 10 -26 12 -10 17 -19 11 -19 -6 0 -1 -18 10 -42 18 -38 25
-58 27 -81 1 -5 6 -5 13 -1 6 4 8 3 5 -3 -3 -5 0 -20 7 -34 13 -26 16 -34 16
-49 0 -6 11 -3 25 6 14 9 24 19 21 21 -2 2 11 21 30 41 19 20 34 43 34 50 0 6
4 12 9 12 5 0 13 9 16 21 4 11 9 18 12 15 6 -5 82 74 83 86 0 4 12 20 26 35
15 15 38 44 53 63 27 35 66 83 89 106 6 7 12 17 12 23 0 6 4 11 9 11 6 0 20
18 32 40 13 22 26 40 31 40 4 0 8 5 8 11 0 7 11 22 26 35 14 13 22 24 18 24
-4 0 5 9 20 21 14 11 24 24 21 28 -2 5 6 13 18 20 29 16 93 99 89 114 -2 7 -1
9 3 5 8 -8 82 69 91 95 3 9 10 17 15 17 6 0 8 4 5 8 -3 5 13 27 35 51 22 23
37 45 35 50 -3 4 6 14 19 21 14 7 27 21 31 32 3 10 10 18 16 18 6 0 9 3 6 6
-6 5 42 61 120 140 17 18 32 38 32 43 0 5 7 11 15 15 8 3 15 13 15 21 0 9 4
14 9 10 12 -7 41 22 41 41 0 8 -5 14 -12 14 -6 0 -9 3 -6 6 4 3 -4 29 -16 57
-38 86 -40 92 -42 102 -4 24 -29 75 -37 75 -4 0 -6 4 -2 9 3 5 -6 21 -20 35
-17 17 -21 27 -13 32 7 5 5 11 -7 21 -11 7 -15 13 -11 13 5 0 1 11 -8 24 -21
34 -14 85 15 107 13 10 21 19 17 19 -4 0 5 13 20 29 46 51 53 61 48 70 -3 5 3
11 14 14 11 3 20 12 20 21 0 9 5 16 10 16 6 0 10 6 10 14 0 8 7 17 16 20 8 3
13 10 10 15 -4 5 -3 11 2 13 9 4 72 84 72 91 0 7 61 99 70 107 3 3 17 21 30
40 13 19 32 43 42 53 10 10 18 24 18 32 0 8 5 15 10 15 6 0 10 6 10 14 0 8 5
16 12 18 11 4 8 8 -45 71 -11 13 -14 23 -8 25 6 2 11 8 11 14 0 5 6 16 13 23
28 32 37 45 37 52 0 5 9 14 20 21 12 7 18 17 15 22 -3 6 -1 10 5 10 6 0 9 4 6
9 -3 5 1 11 9 15 8 3 15 13 15 21 0 9 5 13 10 10 6 -3 10 -1 10 5 0 12 50 83
63 88 4 2 7 9 7 15 0 10 14 30 60 85 6 6 8 12 5 12 -4 0 1 8 11 17 23 23 80
116 76 126 -1 4 2 7 8 7 5 0 10 5 10 10 0 6 9 20 20 33 40 42 47 52 55 72 4
11 7 24 6 28 -1 5 3 6 9 2 5 -3 19 9 30 29 12 19 28 37 36 40 8 3 13 10 9 15
-3 5 3 16 14 23 58 41 60 41 -703 41 l-730 0 -55 52 c-105 98 -158 145 -165
145 -4 0 -20 12 -35 28 -70 66 -122 103 -135 95 -6 -3 -8 -3 -4 2 8 8 -15 35
-30 35 -6 0 -13 7 -16 16 -3 8 -11 12 -17 8 -8 -5 -9 -3 -5 5 5 8 0 14 -13 18
-12 3 -21 10 -21 15 0 5 -4 6 -10 3 -5 -3 -10 -1 -10 5 0 11 -78 90 -89 90 -3
0 -25 19 -47 43 -23 23 -52 49 -64 57 -21 14 -39 29 -87 71 -13 10 -23 17 -23
14 0 -6 -51 36 -98 83 -19 17 -38 32 -43 32 -4 0 -27 18 -50 40 -23 22 -46 40
-51 40 -5 0 -6 5 -3 10 3 6 -1 10 -9 10 -9 0 -16 7 -16 15 0 8 -5 15 -10 15
-6 0 -23 12 -39 28 -59 55 -82 72 -99 72 -9 0 -41 -23 -69 -51z"/>
<path d="M44 4328 c-6 -9 -5 -10 38 -11 17 0 33 4 35 9 4 11 -66 14 -73 2z"/>
<path d="M136 4331 c-4 -7 -5 -15 -2 -18 9 -9 19 4 14 18 -4 11 -6 11 -12 0z"/>
<path d="M163 4327 c-3 -5 -2 -11 1 -14 3 -4 6 -1 6 7 0 8 4 9 13 3 16 -14 47
-12 47 2 0 12 -59 14 -67 2z"/>
<path d="M245 4331 c-3 -5 -1 -12 5 -16 5 -3 10 1 10 9 0 18 -6 21 -15 7z"/>
<path d="M270 4325 c0 -11 91 -12 109 -1 6 4 11 4 11 -1 0 -4 14 -8 30 -8 17
0 30 5 30 10 0 6 -37 10 -90 10 -55 0 -90 -3 -90 -10z"/>
<path d="M475 4330 c-11 -5 -18 -9 -15 -10 27 -8 40 -6 40 6 0 8 -1 14 -2 13
-2 0 -12 -4 -23 -9z"/>
<path d="M510 4325 c0 -12 83 -11 87 1 2 5 -17 9 -42 10 -25 0 -45 -5 -45 -11z"/>
<path d="M614 4331 c-10 -11 -2 -20 16 -18 11 1 20 5 20 10 0 5 6 5 13 0 16
-14 47 -12 47 1 0 11 -86 16 -96 7z"/>
<path d="M725 4331 c-3 -5 -1 -12 5 -16 5 -3 10 1 10 9 0 18 -6 21 -15 7z"/>
<path d="M750 4325 c0 -11 91 -12 109 -1 6 4 11 4 11 -1 0 -4 14 -8 30 -8 17
0 30 5 30 10 0 6 -37 10 -90 10 -55 0 -90 -3 -90 -10z"/>
<path d="M955 4330 c-11 -5 -18 -9 -15 -10 27 -8 40 -6 40 6 0 8 -1 14 -2 13
-2 0 -12 -4 -23 -9z"/>
<path d="M990 4325 c0 -12 83 -11 87 1 2 5 -17 9 -42 10 -25 0 -45 -5 -45 -11z"/>
<path d="M1094 4331 c-10 -11 -2 -20 16 -18 11 1 20 5 20 10 0 5 6 5 13 0 16
-14 47 -12 47 1 0 11 -86 16 -96 7z"/>
<path d="M1205 4331 c-3 -5 -1 -12 5 -16 5 -3 10 1 10 9 0 18 -6 21 -15 7z"/>
<path d="M1230 4325 c0 -5 16 -10 35 -10 19 0 35 5 35 10 0 6 -16 11 -35 11
-19 0 -35 -5 -35 -11z"/>
<path d="M1310 4325 c0 -12 83 -11 87 1 2 5 -17 9 -42 10 -25 0 -45 -5 -45
-11z"/>
<path d="M1414 4331 c-13 -13 2 -17 49 -15 28 2 67 3 85 3 17 1 32 4 32 9 0 7
-158 10 -166 3z"/>
<path d="M4108 4327 c-9 -6 -8 -7 5 -3 9 3 17 1 17 -4 0 -6 5 -10 10 -10 6 0
10 6 10 13 0 16 -23 18 -42 4z"/>
<path d="M4163 4327 c-3 -5 -2 -11 1 -14 3 -4 6 -1 6 7 0 8 4 9 13 3 16 -14
47 -12 47 2 0 12 -59 14 -67 2z"/>
<path d="M4245 4331 c-3 -5 -1 -12 5 -16 5 -3 10 1 10 9 0 18 -6 21 -15 7z"/>
<path d="M4270 4325 c0 -11 91 -12 109 -1 6 4 11 4 11 -1 0 -4 14 -8 30 -8 17
0 30 5 30 10 0 6 -37 10 -90 10 -55 0 -90 -3 -90 -10z"/>
<path d="M4475 4330 c-11 -5 -18 -9 -15 -10 27 -8 40 -6 40 6 0 8 -1 14 -2 13
-2 0 -12 -4 -23 -9z"/>
<path d="M4510 4325 c0 -12 83 -11 87 1 2 5 -17 9 -42 10 -25 0 -45 -5 -45
-11z"/>
<path d="M4614 4331 c-10 -11 -2 -20 16 -18 11 1 20 5 20 10 0 5 6 5 13 0 16
-14 47 -12 47 1 0 11 -86 16 -96 7z"/>
<path d="M4725 4331 c-3 -5 -1 -12 5 -16 5 -3 10 1 10 9 0 18 -6 21 -15 7z"/>
<path d="M4750 4325 c0 -11 91 -12 109 -1 6 4 11 4 11 -1 0 -4 14 -8 30 -8 17
0 30 5 30 10 0 6 -37 10 -90 10 -55 0 -90 -3 -90 -10z"/>
<path d="M4955 4330 c-11 -5 -18 -9 -15 -10 27 -8 40 -6 40 6 0 8 -1 14 -2 13
-2 0 -12 -4 -23 -9z"/>
<path d="M4990 4325 c0 -12 83 -11 87 1 2 5 -17 9 -42 10 -25 0 -45 -5 -45
-11z"/>
<path d="M5094 4331 c-10 -11 -2 -20 16 -18 11 1 20 5 20 10 0 5 6 5 13 0 16
-14 47 -12 47 1 0 11 -86 16 -96 7z"/>
<path d="M5205 4331 c-3 -5 -1 -12 5 -16 5 -3 10 1 10 9 0 18 -6 21 -15 7z"/>
<path d="M5230 4325 c0 -11 91 -12 109 -1 6 4 11 4 11 -1 0 -4 14 -8 30 -8 17
0 30 5 30 10 0 6 -37 10 -90 10 -55 0 -90 -3 -90 -10z"/>
<path d="M5434 4329 c-23 -9 -20 -10 29 -12 20 -1 37 3 37 9 0 12 -39 13 -66
3z"/>
<path d="M5510 4326 c0 -14 42 -14 47 0 2 5 -8 10 -22 10 -14 1 -25 -4 -25
-10z"/>
<path d="M5575 4331 c-12 -12 -2 -17 35 -17 48 0 49 20 1 21 -17 0 -34 -1 -36
-4z"/>
<path d="M1076 2672 c-2 -4 -1 -14 4 -22 7 -11 9 -9 7 8 -1 24 -3 26 -11 14z"/>
<path d="M4597 2674 c-6 -10 9 -42 16 -34 3 3 1 14 -3 24 -3 11 -9 15 -13 10z"/>
</g>
</svg>
